<svg width="244" height="244" viewBox="0 0 244 244" fill="none" xmlns="http://www.w3.org/2000/svg">
<path d="M202.681 126.821C202.657 89.4943 208.269 79.6123 188.041 48.0778C167.813 16.5432 118.228 9.55992 80.7299 32.9498C43.232 56.3396 33.1499 86.4199 33.1499 86.4199C33.1499 86.4199 19.5444 121.556 38.6643 156.936C56.1493 189.3 90.5826 207.688 120.448 222.816H196.815C201.457 218.904 205.404 214.234 208.488 209.006C224.041 182.834 202.71 164.149 202.681 126.821Z" fill="#EA9A01"/>
<path opacity="0.7" d="M202.681 126.821C202.657 89.4943 208.269 79.6123 188.041 48.0778C167.813 16.5432 118.228 9.55992 80.7299 32.9498C43.232 56.3396 33.1499 86.4199 33.1499 86.4199C33.1499 86.4199 19.5444 121.556 38.6643 156.936C56.1493 189.3 90.5826 207.688 120.448 222.816H196.815C201.457 218.904 205.404 214.234 208.488 209.006C224.041 182.834 202.71 164.149 202.681 126.821Z" fill="white"/>
<path d="M123.459 120.087L120.243 181.316L79.5 179.179L79.8416 172.689L82.7159 117.945L108.37 119.292L123.459 120.087Z" fill="white"/>
<mask id="mask0_226_962" style="mask-type:luminance" maskUnits="userSpaceOnUse" x="79" y="117" width="45" height="65">
<path d="M123.459 120.087L120.243 181.316L79.5 179.179L79.8416 172.689L82.7159 117.945L108.37 119.292L123.459 120.087Z" fill="white"/>
</mask>
<g mask="url(#mask0_226_962)">
<path opacity="0.2" d="M110.742 155.96L101.562 156.716L104.242 168.277L79.8416 172.689L82.7159 117.945L108.37 119.292L110.742 155.96Z" fill="black" fill-opacity="0.7"/>
</g>
<path d="M123.459 120.087L120.243 181.316L79.5 179.179L79.8416 172.689L82.7159 117.945L108.37 119.292L123.459 120.087Z" stroke="#263238" stroke-linecap="round" stroke-linejoin="round"/>
<path d="M85.5903 122.132L96.1946 122.688" stroke="#263238" stroke-width="2" stroke-linecap="round" stroke-linejoin="round"/>
<path d="M85.4829 124.167L92.6955 124.547" stroke="#263238" stroke-width="2" stroke-linecap="round" stroke-linejoin="round"/>
<path d="M87.8157 129.11L118.316 130.711" stroke="#263238" stroke-width="2" stroke-linecap="round" stroke-linejoin="round"/>
<path d="M87.7083 131.145L118.208 132.746" stroke="#263238" stroke-width="2" stroke-linecap="round" stroke-linejoin="round"/>
<path d="M87.5862 133.522L113.597 134.883" stroke="#263238" stroke-width="2" stroke-linecap="round" stroke-linejoin="round"/>
<path d="M87.5967 135.689L87.4663 138.17L89.9468 138.3L90.0772 135.82L87.5967 135.689Z" stroke="#263238" stroke-linecap="round" stroke-linejoin="round"/>
<path d="M92.0931 135.928L91.9626 138.408L94.4431 138.539L94.5736 136.058L92.0931 135.928Z" stroke="#263238" stroke-linecap="round" stroke-linejoin="round"/>
<path d="M96.5838 136.166L96.4534 138.646L98.9339 138.777L99.0643 136.296L96.5838 136.166Z" stroke="#263238" stroke-linecap="round" stroke-linejoin="round"/>
<path d="M101.08 136.404L100.949 138.885L103.43 139.015L103.56 136.535L101.08 136.404Z" stroke="#263238" stroke-linecap="round" stroke-linejoin="round"/>
<path d="M86.1905 129.022C86.1874 129.103 86.1684 129.182 86.1345 129.256C86.1007 129.329 86.0527 129.395 85.9933 129.45C85.934 129.505 85.8643 129.548 85.7885 129.575C85.7126 129.603 85.632 129.616 85.5513 129.613C85.3869 129.604 85.2326 129.531 85.1223 129.409C85.012 129.287 84.9548 129.126 84.9632 128.961C84.9716 128.797 85.045 128.643 85.1672 128.532C85.2893 128.422 85.4503 128.365 85.6147 128.373C85.6955 128.377 85.7747 128.397 85.8479 128.431C85.9211 128.465 85.9867 128.514 86.0411 128.574C86.0955 128.634 86.1376 128.704 86.1649 128.78C86.1922 128.856 86.2042 128.937 86.2003 129.017L86.1905 129.022Z" fill="#263238"/>
<path d="M87.1909 140.983L117.691 142.584" stroke="#263238" stroke-width="2" stroke-linecap="round" stroke-linejoin="round"/>
<path d="M87.0835 143.018L117.583 144.619" stroke="#263238" stroke-width="2" stroke-linecap="round" stroke-linejoin="round"/>
<path d="M86.9617 145.395L112.972 146.756" stroke="#263238" stroke-width="2" stroke-linecap="round" stroke-linejoin="round"/>
<path d="M86.9669 147.57L86.8364 150.051L89.3169 150.181L89.4473 147.701L86.9669 147.57Z" stroke="#263238" stroke-linecap="round" stroke-linejoin="round"/>
<path d="M91.4678 147.803L91.3374 150.284L93.8179 150.414L93.9483 147.934L91.4678 147.803Z" stroke="#263238" stroke-linecap="round" stroke-linejoin="round"/>
<path d="M95.9588 148.037L95.8284 150.517L98.3089 150.648L98.4393 148.167L95.9588 148.037Z" stroke="#263238" stroke-linecap="round" stroke-linejoin="round"/>
<path d="M100.45 148.275L100.319 150.756L102.8 150.886L102.93 148.405L100.45 148.275Z" stroke="#263238" stroke-linecap="round" stroke-linejoin="round"/>
<path d="M85.5709 140.895C85.5671 140.977 85.5474 141.057 85.5127 141.13C85.478 141.204 85.4291 141.27 85.3689 141.325C85.3086 141.38 85.2381 141.422 85.1614 141.45C85.0847 141.478 85.0033 141.49 84.9219 141.486C84.7985 141.48 84.6797 141.438 84.5804 141.364C84.4811 141.291 84.4058 141.19 84.364 141.073C84.3222 140.957 84.3158 140.831 84.3456 140.711C84.3753 140.591 84.44 140.483 84.5313 140.4C84.6226 140.317 84.7365 140.263 84.8586 140.244C84.9807 140.226 85.1055 140.244 85.2173 140.296C85.3291 140.349 85.4228 140.433 85.4866 140.539C85.5504 140.645 85.5814 140.767 85.5758 140.89L85.5709 140.895Z" fill="#263238"/>
<path d="M86.5713 152.856L117.066 154.457" stroke="#263238" stroke-width="2" stroke-linecap="round" stroke-linejoin="round"/>
<path d="M86.4639 154.891L116.959 156.492" stroke="#263238" stroke-width="2" stroke-linecap="round" stroke-linejoin="round"/>
<path d="M86.3369 157.263L112.347 158.629" stroke="#263238" stroke-width="2" stroke-linecap="round" stroke-linejoin="round"/>
<path d="M86.347 159.436L86.2166 161.917L88.697 162.047L88.8275 159.567L86.347 159.436Z" stroke="#263238" stroke-linecap="round" stroke-linejoin="round"/>
<path d="M91.3693 159.659L91.2451 162.145L93.7308 162.269L93.855 159.784L91.3693 159.659Z" stroke="#263238" stroke-width="1.00125" stroke-linecap="round" stroke-linejoin="round"/>
<path d="M95.3338 159.913L95.2034 162.393L97.6839 162.524L97.8143 160.043L95.3338 159.913Z" stroke="#263238" stroke-linecap="round" stroke-linejoin="round"/>
<path d="M99.8348 160.146L99.7043 162.626L102.185 162.757L102.315 160.276L99.8348 160.146Z" stroke="#263238" stroke-linecap="round" stroke-linejoin="round"/>
<path d="M84.946 152.768C84.9423 152.85 84.9225 152.93 84.8878 153.003C84.8532 153.077 84.8043 153.143 84.744 153.198C84.6837 153.253 84.6132 153.296 84.5365 153.323C84.4598 153.351 84.3784 153.363 84.297 153.359C84.1313 153.359 83.9725 153.293 83.8553 153.176C83.7382 153.059 83.6724 152.9 83.6724 152.734C83.6724 152.569 83.7382 152.41 83.8553 152.293C83.9725 152.175 84.1313 152.11 84.297 152.11H84.3848C84.4663 152.113 84.5461 152.133 84.6199 152.168C84.6937 152.202 84.7599 152.251 84.8147 152.312C84.8696 152.372 84.912 152.442 84.9395 152.519C84.9671 152.596 84.9793 152.677 84.9753 152.759L84.946 152.768Z" fill="#263238"/>
<path d="M85.927 165.066L116.422 166.672" stroke="#263238" stroke-width="2" stroke-linecap="round" stroke-linejoin="round"/>
<path d="M85.8196 167.101L116.32 168.706" stroke="#263238" stroke-width="2" stroke-linecap="round" stroke-linejoin="round"/>
<path d="M85.6978 169.478L111.708 170.844" stroke="#263238" stroke-width="2" stroke-linecap="round" stroke-linejoin="round"/>
<path d="M85.7005 171.652L85.5701 174.132L88.0506 174.263L88.181 171.782L85.7005 171.652Z" stroke="#263238" stroke-linecap="round" stroke-linejoin="round"/>
<path d="M90.2022 171.885L90.0718 174.366L92.5523 174.496L92.6827 172.016L90.2022 171.885Z" stroke="#263238" stroke-linecap="round" stroke-linejoin="round"/>
<path d="M94.7029 172.119L94.5725 174.599L97.053 174.73L97.1834 172.249L94.7029 172.119Z" stroke="#263238" stroke-linecap="round" stroke-linejoin="round"/>
<path d="M99.1939 172.362L99.0635 174.842L101.544 174.973L101.674 172.492L99.1939 172.362Z" stroke="#263238" stroke-linecap="round" stroke-linejoin="round"/>
<path d="M84.302 164.983C84.2951 165.105 84.2521 165.223 84.1784 165.321C84.1047 165.419 84.0037 165.492 83.8881 165.533C83.7725 165.573 83.6475 165.579 83.5288 165.548C83.4102 165.518 83.3033 165.453 83.2215 165.361C83.1398 165.27 83.087 165.157 83.0697 165.036C83.0524 164.914 83.0714 164.791 83.1244 164.68C83.1773 164.57 83.2618 164.477 83.3672 164.415C83.4726 164.352 83.5941 164.323 83.7164 164.329C83.7978 164.333 83.8776 164.354 83.9511 164.389C84.0247 164.424 84.0905 164.474 84.1449 164.535C84.1993 164.595 84.2412 164.666 84.2682 164.743C84.2951 164.82 84.3066 164.902 84.302 164.983Z" fill="#263238"/>
<path d="M88.4402 136.723L88.7623 137.279L90.0848 135.82" stroke="#263238" stroke-width="2" stroke-linecap="round" stroke-linejoin="round"/>
<path d="M96.8142 148.918L97.1363 149.474L98.4588 148.015" stroke="#263238" stroke-width="2" stroke-linecap="round" stroke-linejoin="round"/>
<path d="M101.016 161.45L101.338 162.006L102.661 160.542" stroke="#263238" stroke-width="2" stroke-linecap="round" stroke-linejoin="round"/>
<path d="M91.0608 172.635L91.3829 173.186L92.7053 171.727" stroke="#263238" stroke-width="2" stroke-linecap="round" stroke-linejoin="round"/>
<path d="M96.3849 163.988L57.0765 174.914L40.6602 115.832L56.935 111.308L79.9686 104.91L94.8623 158.512L96.3849 163.988Z" fill="white"/>
<mask id="mask1_226_962" style="mask-type:luminance" maskUnits="userSpaceOnUse" x="40" y="104" width="57" height="71">
<path d="M96.3849 163.988L57.0765 174.914L40.6602 115.832L56.935 111.308L79.9686 104.91L94.8623 158.512L96.3849 163.988Z" fill="white"/>
</mask>
<g mask="url(#mask1_226_962)">
<path opacity="0.2" d="M94.8624 158.512L64.4698 160.479L56.9351 111.308L79.9687 104.91L94.8624 158.512Z" fill="black" fill-opacity="0.7"/>
</g>
<path d="M96.3849 163.988L57.0765 174.914L40.6602 115.832L56.935 111.308L79.9686 104.91L94.8623 158.512L96.3849 163.988Z" stroke="#263238" stroke-linecap="round" stroke-linejoin="round"/>
<path d="M44.7202 118.887L54.9487 116.046" stroke="#263238" stroke-width="2" stroke-linecap="round" stroke-linejoin="round"/>
<path d="M45.262 120.853L52.2208 118.921" stroke="#263238" stroke-width="2" stroke-linecap="round" stroke-linejoin="round"/>
<path d="M49.0439 124.796L78.4703 116.622" stroke="#263238" stroke-width="2" stroke-linecap="round" stroke-linejoin="round"/>
<path d="M49.5906 126.758L79.017 118.584" stroke="#263238" stroke-width="2" stroke-linecap="round" stroke-linejoin="round"/>
<path d="M50.2249 129.052L75.3227 122.078" stroke="#263238" stroke-width="2" stroke-linecap="round" stroke-linejoin="round"/>
<path d="M53.3263 130.44L50.9331 131.105L51.5982 133.498L53.9914 132.833L53.3263 130.44Z" stroke="#263238" stroke-linecap="round" stroke-linejoin="round"/>
<path d="M57.6652 129.23L55.272 129.895L55.937 132.288L58.3303 131.623L57.6652 129.23Z" stroke="#263238" stroke-linecap="round" stroke-linejoin="round"/>
<path d="M62.0053 128.023L59.6121 128.688L60.2771 131.081L62.6703 130.416L62.0053 128.023Z" stroke="#263238" stroke-linecap="round" stroke-linejoin="round"/>
<path d="M66.3376 126.82L63.9443 127.485L64.6094 129.878L67.0026 129.213L66.3376 126.82Z" stroke="#263238" stroke-linecap="round" stroke-linejoin="round"/>
<path d="M47.4775 125.231C47.5215 125.389 47.5007 125.559 47.4197 125.702C47.3387 125.845 47.2041 125.95 47.0456 125.994C46.8871 126.038 46.7175 126.017 46.5743 125.936C46.4311 125.855 46.3259 125.721 46.2819 125.562C46.2379 125.404 46.2587 125.234 46.3396 125.091C46.4206 124.948 46.5552 124.843 46.7138 124.799C46.8723 124.755 47.0418 124.775 47.1851 124.856C47.3283 124.937 47.4335 125.072 47.4775 125.231Z" fill="#263238"/>
<path d="M52.2258 136.25L81.6522 128.076" stroke="#263238" stroke-width="2" stroke-linecap="round" stroke-linejoin="round"/>
<path d="M52.7722 138.216L82.1986 130.037" stroke="#263238" stroke-width="2" stroke-linecap="round" stroke-linejoin="round"/>
<path d="M53.4116 140.505L78.5046 133.531" stroke="#263238" stroke-width="2" stroke-linecap="round" stroke-linejoin="round"/>
<path d="M56.5107 141.891L54.1174 142.556L54.7825 144.949L57.1757 144.284L56.5107 141.891Z" stroke="#263238" stroke-linecap="round" stroke-linejoin="round"/>
<path d="M60.8464 140.687L58.4531 141.352L59.1182 143.745L61.5114 143.08L60.8464 140.687Z" stroke="#263238" stroke-linecap="round" stroke-linejoin="round"/>
<path d="M65.1867 139.481L62.7935 140.146L63.4585 142.539L65.8517 141.874L65.1867 139.481Z" stroke="#263238" stroke-linecap="round" stroke-linejoin="round"/>
<path d="M69.5304 138.27L67.1372 138.935L67.8023 141.328L70.1955 140.663L69.5304 138.27Z" stroke="#263238" stroke-linecap="round" stroke-linejoin="round"/>
<path d="M50.664 136.689C50.697 136.808 50.6941 136.934 50.6555 137.051C50.6169 137.168 50.5444 137.272 50.4472 137.348C50.35 137.424 50.2324 137.469 50.1093 137.479C49.9862 137.488 49.8631 137.461 49.7556 137.4C49.648 137.339 49.5608 137.248 49.505 137.138C49.4492 137.028 49.4272 136.904 49.4419 136.781C49.4567 136.659 49.5073 136.543 49.5876 136.45C49.6679 136.356 49.7742 136.288 49.893 136.254C49.9715 136.232 50.0536 136.226 50.1347 136.235C50.2157 136.245 50.2941 136.27 50.3653 136.31C50.4365 136.35 50.4991 136.404 50.5495 136.468C50.5999 136.532 50.6372 136.605 50.6592 136.684L50.664 136.689Z" fill="#263238"/>
<path d="M55.4124 147.708L84.8339 139.529" stroke="#263238" stroke-width="2" stroke-linecap="round" stroke-linejoin="round"/>
<path d="M55.959 149.67L85.3805 141.496" stroke="#263238" stroke-width="2" stroke-linecap="round" stroke-linejoin="round"/>
<path d="M56.5933 151.963L81.6911 144.99" stroke="#263238" stroke-width="2" stroke-linecap="round" stroke-linejoin="round"/>
<path d="M59.6906 153.344L57.2974 154.009L57.9624 156.402L60.3556 155.737L59.6906 153.344Z" stroke="#263238" stroke-linecap="round" stroke-linejoin="round"/>
<path d="M64.0356 152.137L61.6423 152.802L62.3074 155.196L64.7006 154.531L64.0356 152.137Z" stroke="#263238" stroke-linecap="round" stroke-linejoin="round"/>
<path d="M68.3664 150.933L65.9731 151.598L66.6382 153.992L69.0314 153.327L68.3664 150.933Z" stroke="#263238" stroke-linecap="round" stroke-linejoin="round"/>
<path d="M72.7067 149.728L70.3135 150.393L70.9785 152.786L73.3718 152.121L72.7067 149.728Z" stroke="#263238" stroke-linecap="round" stroke-linejoin="round"/>
<path d="M53.8459 148.142C53.8789 148.261 53.8759 148.387 53.8374 148.504C53.7988 148.622 53.7263 148.725 53.6291 148.801C53.5319 148.877 53.4143 148.923 53.2912 148.932C53.1681 148.941 53.045 148.914 52.9375 148.853C52.8299 148.793 52.7427 148.702 52.6869 148.592C52.6311 148.481 52.6091 148.357 52.6238 148.235C52.6385 148.112 52.6892 147.997 52.7695 147.903C52.8498 147.809 52.9561 147.741 53.0749 147.708C53.1534 147.686 53.2355 147.679 53.3166 147.689C53.3976 147.698 53.476 147.724 53.5472 147.763C53.6184 147.803 53.681 147.857 53.7314 147.921C53.7818 147.985 53.8191 148.059 53.8411 148.137L53.8459 148.142Z" fill="#263238"/>
<path d="M58.6868 159.488L88.1083 151.314" stroke="#263238" stroke-width="2" stroke-linecap="round" stroke-linejoin="round"/>
<path d="M59.2285 161.455L88.6549 153.276" stroke="#263238" stroke-width="2" stroke-linecap="round" stroke-linejoin="round"/>
<path d="M59.8679 163.744L84.9658 156.77" stroke="#263238" stroke-width="2" stroke-linecap="round" stroke-linejoin="round"/>
<path d="M62.9655 165.13L60.5723 165.795L61.2373 168.188L63.6306 167.523L62.9655 165.13Z" stroke="#263238" stroke-linecap="round" stroke-linejoin="round"/>
<path d="M67.3058 163.923L64.9126 164.588L65.5776 166.982L67.9709 166.317L67.3058 163.923Z" stroke="#263238" stroke-linecap="round" stroke-linejoin="round"/>
<path d="M71.6462 162.718L69.2529 163.383L69.918 165.776L72.3112 165.111L71.6462 162.718Z" stroke="#263238" stroke-linecap="round" stroke-linejoin="round"/>
<path d="M75.9816 161.514L73.5884 162.179L74.2534 164.572L76.6467 163.907L75.9816 161.514Z" stroke="#263238" stroke-linecap="round" stroke-linejoin="round"/>
<path d="M57.1203 159.922C57.1663 160.082 57.1471 160.253 57.067 160.398C56.9869 160.543 56.8525 160.65 56.6933 160.696C56.5341 160.742 56.3632 160.723 56.2181 160.643C56.0731 160.563 55.9658 160.428 55.9198 160.269C55.8746 160.109 55.8943 159.938 55.9747 159.793C56.0552 159.647 56.1898 159.54 56.3493 159.493C56.5071 159.449 56.6759 159.469 56.8192 159.548C56.9626 159.628 57.0689 159.76 57.1154 159.918L57.1203 159.922Z" fill="#263238"/>
<path d="M56.1394 130.677L56.6225 131.101L57.4131 129.296" stroke="#263238" stroke-width="2" stroke-linecap="round" stroke-linejoin="round"/>
<path d="M54.9634 143.457L55.4465 143.882L56.2322 142.076" stroke="#263238" stroke-width="2" stroke-linecap="round" stroke-linejoin="round"/>
<path d="M58.1453 154.794L58.6284 155.218L59.4141 153.413" stroke="#263238" stroke-width="2" stroke-linecap="round" stroke-linejoin="round"/>
<path d="M70.0867 164.08L70.5698 164.505L71.3604 162.699" stroke="#263238" stroke-width="2" stroke-linecap="round" stroke-linejoin="round"/>
<path d="M100.223 91.2623L59.6138 95.1654L65.4801 156.201L106.09 152.298L100.223 91.2623Z" fill="white" stroke="#263238" stroke-linecap="round" stroke-linejoin="round"/>
<path d="M63.074 98.8883L73.6441 97.8733" stroke="#263238" stroke-width="2" stroke-linecap="round" stroke-linejoin="round"/>
<path d="M63.2693 100.918L70.4575 100.225" stroke="#263238" stroke-width="2" stroke-linecap="round" stroke-linejoin="round"/>
<path d="M66.3044 105.462L96.702 102.539" stroke="#263238" stroke-width="2" stroke-linecap="round" stroke-linejoin="round"/>
<path d="M66.4998 107.487L96.8973 104.569" stroke="#263238" stroke-width="2" stroke-linecap="round" stroke-linejoin="round"/>
<path d="M66.729 109.854L92.6564 107.365" stroke="#263238" stroke-width="2" stroke-linecap="round" stroke-linejoin="round"/>
<path d="M69.5433 111.757L67.0708 111.995L67.3084 114.467L69.781 114.23L69.5433 111.757Z" stroke="#263238" stroke-linecap="round" stroke-linejoin="round"/>
<path d="M74.025 111.325L71.5525 111.563L71.7901 114.035L74.2627 113.798L74.025 111.325Z" stroke="#263238" stroke-linecap="round" stroke-linejoin="round"/>
<path d="M78.5067 110.898L76.0342 111.136L76.2718 113.609L78.7444 113.371L78.5067 110.898Z" stroke="#263238" stroke-linecap="round" stroke-linejoin="round"/>
<path d="M82.9879 110.462L80.5154 110.7L80.753 113.172L83.2255 112.935L82.9879 110.462Z" stroke="#263238" stroke-linecap="round" stroke-linejoin="round"/>
<path d="M64.6892 105.618C64.7012 105.741 64.6764 105.864 64.6181 105.973C64.5597 106.082 64.4704 106.171 64.3615 106.229C64.2525 106.288 64.1288 106.312 64.0059 106.3C63.883 106.288 63.7664 106.239 63.671 106.161C63.5756 106.083 63.5055 105.978 63.4697 105.859C63.4339 105.741 63.4339 105.615 63.4698 105.497C63.5056 105.379 63.5757 105.274 63.6711 105.195C63.7666 105.117 63.8831 105.069 64.006 105.057C64.0871 105.049 64.169 105.057 64.247 105.08C64.325 105.104 64.3975 105.142 64.4605 105.194C64.5235 105.246 64.5757 105.309 64.6141 105.381C64.6525 105.453 64.6764 105.532 64.6843 105.613L64.6892 105.618Z" fill="#263238"/>
<path d="M67.4417 117.296L97.8392 114.377" stroke="#263238" stroke-width="2" stroke-linecap="round" stroke-linejoin="round"/>
<path d="M67.6367 119.326L98.0342 116.403" stroke="#263238" stroke-width="2" stroke-linecap="round" stroke-linejoin="round"/>
<path d="M67.8662 121.693L93.7936 119.199" stroke="#263238" stroke-width="2" stroke-linecap="round" stroke-linejoin="round"/>
<path d="M70.68 123.589L68.2075 123.827L68.4452 126.299L70.9177 126.062L70.68 123.589Z" stroke="#263238" stroke-linecap="round" stroke-linejoin="round"/>
<path d="M75.1617 123.162L72.6892 123.4L72.9269 125.872L75.3994 125.634L75.1617 123.162Z" stroke="#263238" stroke-linecap="round" stroke-linejoin="round"/>
<path d="M79.6434 122.73L77.1709 122.968L77.4085 125.441L79.8811 125.203L79.6434 122.73Z" stroke="#263238" stroke-linecap="round" stroke-linejoin="round"/>
<path d="M84.1256 122.309L81.6531 122.546L81.8907 125.019L84.3632 124.781L84.1256 122.309Z" stroke="#263238" stroke-linecap="round" stroke-linejoin="round"/>
<path d="M65.8264 117.452C65.8384 117.575 65.8136 117.698 65.7553 117.807C65.6969 117.916 65.6076 118.005 65.4987 118.063C65.3897 118.121 65.266 118.146 65.1431 118.134C65.0202 118.122 64.9037 118.073 64.8082 117.995C64.7128 117.917 64.6428 117.812 64.6069 117.693C64.5711 117.575 64.5711 117.449 64.607 117.331C64.6428 117.213 64.7129 117.108 64.8084 117.029C64.9038 116.951 65.0203 116.903 65.1432 116.891C65.225 116.883 65.3075 116.891 65.386 116.914C65.4646 116.938 65.5377 116.977 65.6012 117.03C65.6647 117.082 65.7172 117.146 65.7559 117.218C65.7945 117.291 65.8185 117.37 65.8264 117.452Z" fill="#263238"/>
<path d="M68.5786 129.13L98.9761 126.211" stroke="#263238" stroke-width="2" stroke-linecap="round" stroke-linejoin="round"/>
<path d="M68.7739 131.16L99.1715 128.237" stroke="#263238" stroke-width="2" stroke-linecap="round" stroke-linejoin="round"/>
<path d="M69.0032 133.527L94.9306 131.033" stroke="#263238" stroke-width="2" stroke-linecap="round" stroke-linejoin="round"/>
<path d="M71.8168 135.426L69.3442 135.664L69.5819 138.136L72.0544 137.898L71.8168 135.426Z" stroke="#263238" stroke-linecap="round" stroke-linejoin="round"/>
<path d="M76.2985 134.994L73.8259 135.232L74.0636 137.705L76.5361 137.467L76.2985 134.994Z" stroke="#263238" stroke-linecap="round" stroke-linejoin="round"/>
<path d="M80.7801 134.567L78.3076 134.805L78.5453 137.277L81.0178 137.04L80.7801 134.567Z" stroke="#263238" stroke-linecap="round" stroke-linejoin="round"/>
<path d="M85.2618 134.136L82.7893 134.373L83.0269 136.846L85.4995 136.608L85.2618 134.136Z" stroke="#263238" stroke-linecap="round" stroke-linejoin="round"/>
<path d="M66.9584 129.286C66.9695 129.408 66.9441 129.53 66.8855 129.638C66.8269 129.746 66.7377 129.834 66.6292 129.891C66.5207 129.948 66.3977 129.971 66.2758 129.958C66.1539 129.945 66.0386 129.896 65.9444 129.818C65.8503 129.739 65.7815 129.635 65.7468 129.517C65.7121 129.4 65.713 129.275 65.7495 129.157C65.7859 129.04 65.8563 128.937 65.9516 128.86C66.0469 128.783 66.1629 128.736 66.285 128.725C66.3661 128.717 66.4478 128.726 66.5255 128.75C66.6032 128.774 66.6754 128.814 66.738 128.866C66.8005 128.918 66.8522 128.982 66.89 129.054C66.9278 129.126 66.9511 129.205 66.9584 129.286Z" fill="#263238"/>
<path d="M69.7498 141.305L100.147 138.382" stroke="#263238" stroke-width="2" stroke-linecap="round" stroke-linejoin="round"/>
<path d="M69.9451 143.33L100.343 140.412" stroke="#263238" stroke-width="2" stroke-linecap="round" stroke-linejoin="round"/>
<path d="M70.1694 145.697L96.0969 143.208" stroke="#263238" stroke-width="2" stroke-linecap="round" stroke-linejoin="round"/>
<path d="M72.9862 147.599L70.5137 147.837L70.7513 150.31L73.2238 150.072L72.9862 147.599Z" stroke="#263238" stroke-linecap="round" stroke-linejoin="round"/>
<path d="M77.4725 147.172L75 147.41L75.2376 149.883L77.7102 149.645L77.4725 147.172Z" stroke="#263238" stroke-linecap="round" stroke-linejoin="round"/>
<path d="M81.9488 146.736L79.4763 146.974L79.714 149.447L82.1865 149.209L81.9488 146.736Z" stroke="#263238" stroke-linecap="round" stroke-linejoin="round"/>
<path d="M86.4305 146.305L83.958 146.542L84.1956 149.015L86.6682 148.777L86.4305 146.305Z" stroke="#263238" stroke-linecap="round" stroke-linejoin="round"/>
<path d="M68.1296 141.457C68.1426 141.58 68.1187 141.704 68.0609 141.814C68.0031 141.923 67.914 142.013 67.805 142.072C67.6959 142.131 67.5718 142.156 67.4485 142.144C67.3251 142.132 67.2081 142.084 67.1123 142.005C67.0165 141.927 66.9462 141.821 66.9104 141.703C66.8746 141.584 66.8749 141.458 66.9113 141.339C66.9476 141.221 67.0183 141.116 67.1145 141.038C67.2107 140.959 67.3279 140.912 67.4513 140.9C67.5324 140.892 67.6142 140.9 67.6922 140.924C67.7702 140.947 67.8428 140.986 67.9058 141.038C67.9688 141.089 68.021 141.153 68.0594 141.225C68.0978 141.297 68.1217 141.375 68.1296 141.457Z" fill="#263238"/>
<path d="M68.0466 112.899L68.4468 113.401L69.5399 111.762" stroke="#263238" stroke-width="2" stroke-linecap="round" stroke-linejoin="round"/>
<path d="M78.1338 123.723L78.5339 124.225L79.6222 122.586" stroke="#263238" stroke-width="2" stroke-linecap="round" stroke-linejoin="round"/>
<path d="M74.8103 136.235L75.2105 136.738L76.3036 135.098" stroke="#263238" stroke-width="2" stroke-linecap="round" stroke-linejoin="round"/>
<path d="M84.8779 147.454L85.2781 147.957L86.3712 146.317" stroke="#263238" stroke-width="2" stroke-linecap="round" stroke-linejoin="round"/>
<path d="M149.889 67.2025H124.674C123.784 67.2025 122.93 67.5562 122.3 68.1859C121.671 68.8155 121.317 69.6695 121.317 70.5599V92.232C121.317 93.1224 121.671 93.9764 122.3 94.6061C122.93 95.2357 123.784 95.5894 124.674 95.5894H135.85L142.252 103.305L140.647 95.5894H149.889C150.777 95.5856 151.627 95.2301 152.254 94.6009C152.88 93.9717 153.232 93.1199 153.232 92.232V70.5599C153.232 69.672 152.88 68.8202 152.254 68.191C151.627 67.5618 150.777 67.2064 149.889 67.2025Z" fill="white" stroke="#263238" stroke-linecap="round" stroke-linejoin="round"/>
<path d="M139.3 79.0902V76.7966L137.582 76.6502C137.479 76.2921 137.337 75.9467 137.157 75.6205L138.265 74.3029L136.64 72.6827L135.322 73.7905C134.998 73.608 134.652 73.4655 134.293 73.3659L134.146 71.6482H131.853L131.706 73.3659C131.347 73.4655 131.002 73.608 130.677 73.7905L129.359 72.6827L127.734 74.3029L128.832 75.64C128.65 75.9657 128.506 76.3112 128.403 76.6697L126.685 76.8161V79.1097L128.403 79.261C128.506 79.6195 128.65 79.965 128.832 80.2906L127.719 81.6082L129.344 83.2284L130.662 82.1206C130.987 82.3031 131.333 82.4457 131.692 82.5452L131.838 84.263H134.132L134.278 82.5452C134.637 82.4457 134.983 82.3031 135.308 82.1206L136.625 83.2284L138.25 81.6082L137.143 80.2906C137.322 79.9644 137.465 79.619 137.567 79.261L139.3 79.0902ZM133 80.6127C132.472 80.6137 131.955 80.4581 131.516 80.1656C131.076 79.8731 130.733 79.4568 130.53 78.9694C130.327 78.482 130.274 77.9454 130.376 77.4274C130.478 76.9094 130.731 76.4333 131.104 76.0593C131.476 75.6853 131.951 75.4302 132.469 75.3262C132.987 75.2223 133.524 75.2742 134.012 75.4753C134.5 75.6765 134.917 76.0179 135.211 76.4563C135.506 76.8947 135.663 77.4105 135.664 77.9385C135.665 78.2886 135.597 78.6355 135.464 78.9593C135.331 79.2831 135.136 79.5774 134.888 79.8254C134.641 80.0734 134.348 80.2702 134.024 80.4045C133.701 80.5387 133.354 80.6078 133.004 80.6078L133 80.6127Z" fill="#EA9A01"/>
<path d="M146.888 84.2093V82.5794L145.663 82.472C145.592 82.2168 145.49 81.971 145.361 81.74L146.151 80.803L145 79.6514L144.058 80.437C143.826 80.3093 143.58 80.2078 143.326 80.1345L143.223 78.9145H141.588L141.486 80.1345C141.23 80.2078 140.983 80.3093 140.749 80.437L139.812 79.6514L138.66 80.803L139.446 81.74C139.318 81.9712 139.218 82.2169 139.148 82.472L137.924 82.5794V84.2093L139.148 84.3166C139.218 84.5717 139.318 84.8175 139.446 85.0486L138.66 85.9856L139.812 87.1422L140.749 86.3516C140.981 86.4835 141.228 86.5852 141.486 86.6542L141.588 87.879H143.223L143.326 86.6542C143.582 86.5851 143.828 86.4835 144.058 86.3516L145 87.1422L146.151 85.9856L145.361 85.0486C145.493 84.8186 145.594 84.5726 145.663 84.3166L146.888 84.2093ZM142.403 85.2926C142.028 85.2926 141.661 85.1813 141.349 84.9727C141.037 84.7641 140.793 84.4677 140.65 84.1208C140.506 83.7739 140.468 83.3922 140.542 83.024C140.615 82.6557 140.796 82.3175 141.061 82.052C141.327 81.7865 141.665 81.6057 142.033 81.5325C142.401 81.4592 142.783 81.4968 143.13 81.6405C143.477 81.7842 143.773 82.0275 143.982 82.3397C144.19 82.6519 144.302 83.0189 144.302 83.3943C144.302 83.8978 144.102 84.3806 143.746 84.7366C143.39 85.0926 142.907 85.2926 142.403 85.2926Z" fill="#EA9A01"/>
<path d="M138.905 88.0108V86.864L138.031 86.7859C137.981 86.6037 137.909 86.4284 137.816 86.2637L138.377 85.6001L137.558 84.7753L136.889 85.3365C136.724 85.248 136.551 85.176 136.372 85.1218L136.294 84.2532H135.132L135.059 85.1218C134.878 85.1739 134.703 85.2459 134.537 85.3365L133.868 84.7753L133.049 85.6001L133.61 86.2637C133.519 86.4293 133.447 86.6044 133.395 86.7859L132.526 86.864V88.0205L133.395 88.0986C133.447 88.2801 133.519 88.4552 133.61 88.6208L133.049 89.304L133.868 90.1287L134.537 89.5675C134.703 89.6561 134.878 89.728 135.059 89.7822L135.132 90.6509H136.294L136.372 89.7822C136.551 89.728 136.724 89.6561 136.889 89.5675L137.558 90.1287L138.377 89.304L137.816 88.6403C137.909 88.4757 137.981 88.3003 138.031 88.1181L138.905 88.0108ZM135.713 88.7818C135.446 88.7818 135.184 88.7025 134.962 88.554C134.74 88.4055 134.566 88.1944 134.464 87.9474C134.362 87.7004 134.335 87.4286 134.387 87.1663C134.439 86.9041 134.568 86.6633 134.757 86.4742C134.946 86.2852 135.187 86.1564 135.449 86.1043C135.712 86.0521 135.983 86.0789 136.23 86.1812C136.477 86.2835 136.688 86.4568 136.837 86.6791C136.985 86.9014 137.065 87.1627 137.065 87.4301C137.063 87.7877 136.92 88.1303 136.667 88.3827C136.414 88.6352 136.071 88.7769 135.713 88.7769V88.7818Z" fill="#EA9A01"/>
<path d="M136.606 150.485L156.263 222.992H159.2L139.549 150.485H136.606Z" fill="#757575" stroke="#263238" stroke-linecap="round" stroke-linejoin="round"/>
<path d="M180.877 202.437H143.618V205.472H180.877V202.437Z" fill="#999999" stroke="#263238" stroke-linecap="round" stroke-linejoin="round"/>
<path d="M200.754 134.2L176.68 223.016H173.752L197.821 134.2C198.709 130.926 196.674 128.261 193.282 128.261H172.542C169.156 128.261 165.671 130.926 164.783 134.2L140.705 223.016H137.777L161.85 134.2C163.163 129.354 168.297 125.416 173.313 125.416H194.058C199.06 125.416 202.066 129.349 200.754 134.2Z" fill="#757575" stroke="#263238" stroke-linecap="round" stroke-linejoin="round"/>
<path d="M201.134 134.224L195.161 156.272C194.873 157.2 194.305 158.016 193.534 158.608C192.763 159.2 191.828 159.538 190.857 159.576H156.775C156.364 159.608 155.951 159.537 155.575 159.369C155.199 159.201 154.87 158.941 154.62 158.614C154.369 158.286 154.205 157.901 154.142 157.494C154.078 157.087 154.118 156.67 154.257 156.282L160.235 134.234C160.525 133.308 161.094 132.495 161.865 131.905C162.635 131.315 163.569 130.978 164.539 130.94H198.616C198.941 130.917 199.267 130.958 199.576 131.061C199.885 131.164 200.171 131.327 200.417 131.54C200.663 131.754 200.865 132.014 201.011 132.305C201.156 132.596 201.243 132.914 201.266 133.239C201.288 133.573 201.243 133.908 201.134 134.224Z" fill="#EA9A01"/>
<mask id="mask2_226_962" style="mask-type:luminance" maskUnits="userSpaceOnUse" x="154" y="130" width="48" height="30">
<path d="M201.134 134.224L195.161 156.272C194.873 157.2 194.305 158.016 193.534 158.608C192.763 159.2 191.828 159.538 190.857 159.576H156.775C156.364 159.608 155.951 159.537 155.575 159.369C155.199 159.201 154.87 158.941 154.62 158.614C154.369 158.286 154.205 157.901 154.142 157.494C154.078 157.087 154.118 156.67 154.257 156.282L160.235 134.234C160.525 133.308 161.094 132.495 161.865 131.905C162.635 131.315 163.569 130.978 164.539 130.94H198.616C198.941 130.917 199.267 130.958 199.576 131.061C199.885 131.164 200.171 131.327 200.417 131.54C200.663 131.754 200.865 132.014 201.011 132.305C201.156 132.596 201.243 132.914 201.266 133.239C201.288 133.573 201.243 133.908 201.134 134.224Z" fill="white"/>
</mask>
<g mask="url(#mask2_226_962)">
<path opacity="0.2" d="M201.134 134.224L195.161 156.272C194.873 157.2 194.305 158.016 193.534 158.608C192.763 159.2 191.828 159.538 190.857 159.576H156.775C156.364 159.608 155.951 159.537 155.575 159.369C155.199 159.201 154.87 158.941 154.62 158.614C154.369 158.286 154.205 157.901 154.142 157.494C154.078 157.087 154.118 156.67 154.257 156.282L160.235 134.234C160.525 133.308 161.094 132.495 161.865 131.905C162.635 131.315 163.569 130.978 164.539 130.94H182.161C189.778 138.748 188.807 153.139 188.309 157.482C189.104 157.291 189.837 156.897 190.435 156.34C191.033 155.782 191.478 155.08 191.725 154.301L197.689 132.248C197.811 131.821 197.836 131.373 197.762 130.935H198.616C199.026 130.906 199.436 130.979 199.811 131.147C200.185 131.316 200.512 131.575 200.762 131.901C201.011 132.227 201.176 132.61 201.241 133.016C201.306 133.421 201.269 133.836 201.134 134.224Z" fill="black" fill-opacity="0.7"/>
</g>
<path d="M201.134 134.224L195.161 156.272C194.873 157.2 194.305 158.016 193.534 158.608C192.763 159.2 191.828 159.538 190.857 159.576H156.775C156.364 159.608 155.951 159.537 155.575 159.369C155.199 159.201 154.87 158.941 154.62 158.614C154.369 158.286 154.205 157.901 154.142 157.494C154.078 157.087 154.118 156.67 154.257 156.282L160.235 134.234C160.525 133.308 161.094 132.495 161.865 131.905C162.635 131.315 163.569 130.978 164.539 130.94H198.616C198.941 130.917 199.267 130.958 199.576 131.061C199.885 131.164 200.171 131.327 200.417 131.54C200.663 131.754 200.865 132.014 201.011 132.305C201.156 132.596 201.243 132.914 201.266 133.239C201.288 133.573 201.243 133.908 201.134 134.224Z" stroke="#263238" stroke-linecap="round" stroke-linejoin="round"/>
<path d="M181.097 181.883L192.243 222.992H195.18L184.039 181.883H181.097Z" fill="#757575" stroke="#263238" stroke-linecap="round" stroke-linejoin="round"/>
<path d="M184.049 177.144V181.165H140.168V177.144C140.168 176.36 140.48 175.607 141.034 175.053C141.589 174.498 142.341 174.187 143.125 174.187H181.087C181.476 174.185 181.861 174.261 182.221 174.409C182.581 174.557 182.907 174.775 183.183 175.05C183.458 175.325 183.676 175.651 183.825 176.01C183.974 176.37 184.05 176.755 184.049 177.144Z" fill="#EA9A01"/>
<mask id="mask3_226_962" style="mask-type:luminance" maskUnits="userSpaceOnUse" x="140" y="174" width="45" height="8">
<path d="M184.049 177.144V181.165H140.168V177.144C140.168 176.36 140.48 175.607 141.034 175.053C141.589 174.498 142.341 174.187 143.125 174.187H181.087C181.476 174.185 181.861 174.261 182.221 174.409C182.581 174.557 182.907 174.775 183.183 175.05C183.458 175.325 183.676 175.651 183.825 176.01C183.974 176.37 184.05 176.755 184.049 177.144Z" fill="white"/>
</mask>
<g mask="url(#mask3_226_962)">
<path opacity="0.2" d="M183.947 176.388C182.527 178.057 179.979 179.755 175.597 181.185H140.168V177.144C140.168 176.36 140.48 175.608 141.034 175.053C141.589 174.498 142.341 174.187 143.125 174.187H181.087C181.74 174.187 182.374 174.404 182.891 174.801C183.408 175.199 183.779 175.757 183.947 176.388Z" fill="black" fill-opacity="0.7"/>
</g>
<path d="M184.049 177.144V181.165H140.168V177.144C140.168 176.36 140.48 175.607 141.034 175.053C141.589 174.498 142.341 174.187 143.125 174.187H181.087C181.476 174.185 181.861 174.261 182.221 174.409C182.581 174.557 182.907 174.775 183.183 175.05C183.458 175.325 183.676 175.651 183.825 176.01C183.974 176.37 184.05 176.755 184.049 177.144Z" stroke="#263238" stroke-linecap="round" stroke-linejoin="round"/>
<path d="M185.538 179.95H139.061C138.6 179.95 138.226 180.324 138.226 180.784V182.888C138.226 183.349 138.6 183.722 139.061 183.722H185.538C185.999 183.722 186.372 183.349 186.372 182.888V180.784C186.372 180.324 185.999 179.95 185.538 179.95Z" fill="#999999" stroke="#263238" stroke-linecap="round" stroke-linejoin="round"/>
<path d="M138.743 180.072C136.64 182.214 146.834 215.877 146.834 215.877C145.722 216.853 144.082 217.302 142.53 217.506C141.104 217.684 139.662 217.705 138.231 217.57C138.231 217.57 123.62 182.131 127.641 173.338C131.662 164.544 156.614 160.552 156.614 160.552L157.678 157.917L170.585 156.101L172.718 171.908C172.718 171.908 170.6 172.113 167.413 172.523C158.868 173.606 142.608 176.168 138.743 180.072Z" fill="#263238"/>
<mask id="mask4_226_962" style="mask-type:luminance" maskUnits="userSpaceOnUse" x="126" y="156" width="47" height="62">
<path d="M138.743 180.072C136.64 182.214 146.834 215.877 146.834 215.877C145.722 216.853 144.082 217.302 142.53 217.506C141.104 217.684 139.662 217.705 138.231 217.57C138.231 217.57 123.62 182.131 127.641 173.338C131.662 164.544 156.614 160.552 156.614 160.552L157.678 157.917L170.585 156.101L172.718 171.908C172.718 171.908 170.6 172.113 167.413 172.523C158.868 173.606 142.608 176.168 138.743 180.072Z" fill="white"/>
</mask>
<g mask="url(#mask4_226_962)">
<path opacity="0.3" d="M146.834 215.896C145.722 216.872 144.082 217.321 142.53 217.526C139.695 206.985 132.477 178.857 135.21 175.416C138.582 171.171 155.272 167.311 155.272 167.311C155.34 165.144 161.191 163.192 161.191 163.192L167.408 172.508C158.864 173.606 142.603 176.168 138.738 180.072C136.64 182.234 146.834 215.896 146.834 215.896Z" fill="black"/>
</g>
<path d="M138.743 180.072C136.64 182.214 146.834 215.877 146.834 215.877C145.722 216.853 144.082 217.302 142.53 217.506C141.104 217.684 139.662 217.705 138.231 217.57C138.231 217.57 123.62 182.131 127.641 173.338C131.662 164.544 156.614 160.552 156.614 160.552L157.678 157.917L170.585 156.101L172.718 171.908C172.718 171.908 170.6 172.113 167.413 172.523C158.868 173.606 142.608 176.168 138.743 180.072Z" stroke="#263238" stroke-linecap="round" stroke-linejoin="round"/>
<path d="M131.521 148.21C129.379 147.844 144.629 134.473 144.629 134.473L151.983 139.422C151.983 139.422 139.47 148.235 137.504 148.474C135.537 148.713 131.521 148.21 131.521 148.21Z" fill="white"/>
<mask id="mask5_226_962" style="mask-type:luminance" maskUnits="userSpaceOnUse" x="131" y="134" width="21" height="15">
<path d="M131.521 148.21C129.379 147.844 144.629 134.473 144.629 134.473L151.983 139.422C151.983 139.422 139.47 148.235 137.504 148.474C135.537 148.713 131.521 148.21 131.521 148.21Z" fill="white"/>
</mask>
<g mask="url(#mask5_226_962)">
<path opacity="0.2" d="M131.521 148.21C129.379 147.844 144.629 134.473 144.629 134.473L151.983 139.422C151.983 139.422 139.47 148.235 137.504 148.474C135.537 148.713 131.521 148.21 131.521 148.21Z" fill="black" fill-opacity="0.7"/>
</g>
<path d="M131.521 148.21C129.379 147.844 144.629 134.473 144.629 134.473L151.983 139.422C151.983 139.422 139.47 148.235 137.504 148.474C135.537 148.713 131.521 148.21 131.521 148.21Z" stroke="#263238" stroke-linecap="round" stroke-linejoin="round"/>
<path d="M134.2 142.589C134.2 142.589 137.396 143.384 138.377 144.053C139.358 144.721 139.075 147.137 139.075 147.137C139.075 147.137 134.815 145.936 134.2 142.589Z" fill="white" stroke="#263238" stroke-linecap="round" stroke-linejoin="round"/>
<path d="M132.16 136.464L138.104 147.864H138.807L133.161 135.903L132.16 136.464Z" fill="#263238"/>
<path d="M137.518 144.707C137.518 144.707 133.771 142.042 132.853 142.042C131.936 142.042 129.188 145.287 129.188 146.922C129.188 148.557 135.181 149.45 136.352 148.069C136.938 147.381 135.776 145.722 135.776 145.722C136.474 146.464 137.222 147.157 138.016 147.796C138.504 148.069 139.436 147.713 139.436 147.713C139.436 147.713 138.187 145.712 137.518 144.707Z" fill="white" stroke="#263238" stroke-linecap="round" stroke-linejoin="round"/>
<path d="M135.776 148.445C134.912 147.348 133.851 146.421 132.648 145.712" stroke="#263238" stroke-linecap="round" stroke-linejoin="round"/>
<path d="M135.776 145.712C135.776 145.712 134.478 144.58 133.605 144.331" stroke="#263238" stroke-linecap="round" stroke-linejoin="round"/>
<path d="M131.692 147.152C132.599 147.617 133.475 148.142 134.312 148.723" stroke="#263238" stroke-linecap="round" stroke-linejoin="round"/>
<path d="M149.406 128.627C147.488 129.964 138.875 138.821 138.875 138.821C138.875 138.821 142.911 143.413 146.449 144.077L156.038 139.422L149.406 128.627Z" fill="#EA9A01" stroke="#263238" stroke-linecap="round" stroke-linejoin="round"/>
<path opacity="0.4" d="M149.406 128.627C147.488 129.964 138.875 138.821 138.875 138.821C138.875 138.821 142.911 143.413 146.449 144.077L156.038 139.422L149.406 128.627Z" fill="white" stroke="#263238" stroke-linecap="round" stroke-linejoin="round"/>
<path d="M144.775 212.324L148.84 223.016C148.84 223.016 149.513 225.763 137.255 224.895L130.501 224.319L144.775 212.324Z" fill="#EA9A01"/>
<mask id="mask6_226_962" style="mask-type:luminance" maskUnits="userSpaceOnUse" x="130" y="212" width="19" height="14">
<path d="M144.775 212.324L148.84 223.016C148.84 223.016 149.513 225.763 137.255 224.895L130.501 224.319L144.775 212.324Z" fill="white"/>
</mask>
<g mask="url(#mask6_226_962)">
<path opacity="0.3" d="M144.775 212.324L148.84 223.016C148.84 223.016 149.513 225.763 137.255 224.895L130.501 224.319L144.775 212.324Z" fill="black"/>
</g>
<path d="M144.775 212.324L148.84 223.016C148.84 223.016 149.513 225.763 137.255 224.895L130.501 224.319L144.775 212.324Z" stroke="#263238" stroke-linecap="round" stroke-linejoin="round"/>
<path d="M143.233 217.438C143.233 217.438 144.101 221.591 143.233 224.68C143.233 224.68 130.296 226.705 127.402 225.934C124.508 225.163 122.751 223.719 122.664 223.006C122.664 223.006 122.766 221.025 125.665 220.444C128.563 219.864 134.327 219.468 136.606 216.199C138.885 212.929 143.233 217.438 143.233 217.438Z" fill="#EA9A01" stroke="#263238" stroke-linecap="round" stroke-linejoin="round"/>
<path d="M160.303 157.487C164.436 151.592 183.439 158.688 183.439 158.688C183.439 158.688 185.25 172.879 177.681 176.666C170.112 180.453 159.2 180.248 156.253 183.317L144.258 218.736C144.258 218.736 139.949 220.537 133.683 217.702C133.683 217.702 141.3 190.954 143.535 181.458C145.746 172.059 160.059 165.681 160.059 165.681C159.321 164.809 158.762 163.801 158.414 162.714" fill="#263238"/>
<path d="M160.303 157.487C164.436 151.592 183.439 158.688 183.439 158.688C183.439 158.688 185.25 172.879 177.681 176.666C170.112 180.453 159.2 180.248 156.253 183.317L144.258 218.736C144.258 218.736 139.949 220.537 133.683 217.702C133.683 217.702 141.3 190.954 143.535 181.458C145.746 172.059 160.059 165.681 160.059 165.681C159.321 164.809 158.762 163.801 158.414 162.714" stroke="#263238" stroke-linecap="round" stroke-linejoin="round"/>
<path d="M179.54 171.054C178.934 171.591 178.297 172.093 177.632 172.557" stroke="white" stroke-linecap="round" stroke-linejoin="round"/>
<path d="M181.097 159.034C182.649 162.402 182.771 166.676 180.609 169.795" stroke="white" stroke-linecap="round" stroke-linejoin="round"/>
<path d="M176.768 159.576C176.768 159.576 176.373 162.172 177.53 163.202C178.686 164.232 182.234 164.754 182.234 164.754" stroke="white" stroke-linecap="round" stroke-linejoin="round"/>
<path d="M161.191 159.693C161.191 159.693 161.352 162.28 160.303 162.158C159.254 162.036 159.2 163.192 159.2 163.192" stroke="white" stroke-linecap="round" stroke-linejoin="round"/>
<path d="M149.66 130.618C149.5 129.966 149.415 129.298 149.406 128.627C149.406 128.627 155.262 123.689 162.802 123.718C171.781 123.747 177.271 126.573 179.467 130.496C182.951 136.703 183.439 158.688 183.439 158.688C183.439 158.688 160.908 162.162 157.678 157.902C157.116 157.16 157.546 151.924 157.546 151.924C157.546 151.924 155.023 145.307 154.491 140.173C153.75 139.151 153.061 138.093 152.427 137.001C151.624 135.657 150.929 134.252 150.348 132.799" fill="#EA9A01"/>
<path d="M149.66 130.618C149.5 129.966 149.415 129.298 149.406 128.627C149.406 128.627 155.262 123.689 162.802 123.718C171.781 123.747 177.271 126.573 179.467 130.496C182.951 136.703 183.439 158.688 183.439 158.688C183.439 158.688 160.908 162.162 157.678 157.902C157.116 157.16 157.546 151.924 157.546 151.924C157.546 151.924 155.023 145.307 154.491 140.173C153.75 139.151 153.061 138.093 152.427 137.001C151.624 135.657 150.929 134.252 150.348 132.799" stroke="#263238" stroke-linecap="round" stroke-linejoin="round"/>
<g opacity="0.6">
<path d="M149.66 130.618C149.5 129.966 149.415 129.298 149.406 128.627C149.406 128.627 155.262 123.689 162.802 123.718C171.781 123.747 177.271 126.573 179.467 130.496C182.951 136.703 183.439 158.688 183.439 158.688C183.439 158.688 160.908 162.162 157.678 157.902C157.116 157.16 157.546 151.924 157.546 151.924C157.546 151.924 155.023 145.307 154.491 140.173C153.75 139.151 153.061 138.093 152.427 137.001C151.624 135.657 150.929 134.252 150.348 132.799" fill="white"/>
<path d="M149.66 130.618C149.5 129.966 149.415 129.298 149.406 128.627C149.406 128.627 155.262 123.689 162.802 123.718C171.781 123.747 177.271 126.573 179.467 130.496C182.951 136.703 183.439 158.688 183.439 158.688C183.439 158.688 160.908 162.162 157.678 157.902C157.116 157.16 157.546 151.924 157.546 151.924C157.546 151.924 155.023 145.307 154.491 140.173C153.75 139.151 153.061 138.093 152.427 137.001C151.624 135.657 150.929 134.252 150.348 132.799" stroke="#263238" stroke-linecap="round" stroke-linejoin="round"/>
</g>
<path d="M158.288 135.903C158.288 135.903 161.728 149.25 161.216 152.188C161.093 153.201 161.263 154.229 161.704 155.15C161.254 155.623 160.965 156.225 160.877 156.872C160.79 157.518 160.908 158.176 161.216 158.751" stroke="#263238" stroke-linecap="round" stroke-linejoin="round"/>
<path d="M167.413 146.947C166.799 146.923 166.202 146.734 165.686 146.4L164.666 141.93C166.689 142.114 168.729 141.971 170.707 141.505L171.8 146.385C171.186 146.557 170.562 146.692 169.931 146.79" stroke="#263238" stroke-linecap="round" stroke-linejoin="round"/>
<path d="M155.843 137.64C155.843 137.64 152.915 125.167 160.303 123.718C167.691 122.268 169.209 125.719 168.775 128.056C168.194 131.174 162.07 138.821 162.07 138.821L158.288 135.893L155.843 137.64Z" fill="#EA9A01" stroke="#263238" stroke-linecap="round" stroke-linejoin="round"/>
<path opacity="0.4" d="M155.843 137.64C155.843 137.64 152.915 125.167 160.303 123.718C167.691 122.268 169.209 125.719 168.775 128.056C168.194 131.174 162.07 138.821 162.07 138.821L158.288 135.893L155.843 137.64Z" fill="white" stroke="#263238" stroke-linecap="round" stroke-linejoin="round"/>
<path d="M146.151 176.168C146.151 176.168 150.924 170.658 161.699 166.496C161.699 166.496 158.907 165.642 158.283 164.48" stroke="white" stroke-linecap="round" stroke-linejoin="round"/>
<path d="M140.539 193.028L136.177 208.869" stroke="white" stroke-linecap="round" stroke-linejoin="round"/>
<path d="M174.25 147.376C174.25 147.376 176.202 150.67 184.24 150.367C182.744 148.766 180.852 147.587 178.754 146.951C175.47 146.073 174.25 147.376 174.25 147.376Z" fill="#EA9A01" stroke="#263238" stroke-linecap="round" stroke-linejoin="round"/>
<path d="M143.067 148.699C143.067 148.699 144.931 145.81 146.639 145.229C148.347 144.648 153.364 144.599 154.14 144.58C154.916 144.56 168.702 148.064 175.172 150.221L174.606 139.422L183.302 140.11C183.302 140.11 182.951 153.286 181.599 156.775C180.248 160.264 178.31 159.415 175.006 157.99C162.011 152.393 154.398 148.494 153.691 148.718C152.983 148.943 143.067 148.699 143.067 148.699Z" fill="white" stroke="#263238" stroke-linecap="round" stroke-linejoin="round"/>
<path d="M172.435 133.146C172.208 134.041 172.135 134.969 172.22 135.888C172.606 139.265 174.25 147.376 174.25 147.376C174.25 147.376 182.356 148.533 184.239 150.367C184.239 150.367 185.577 139.631 182.854 134.18C180.131 128.73 177.315 128.129 177.315 128.129C175.534 127.69 173.899 129.349 172.996 131.482" fill="#EA9A01"/>
<path d="M172.435 133.146C172.208 134.041 172.135 134.969 172.22 135.888C172.606 139.265 174.25 147.376 174.25 147.376C174.25 147.376 182.356 148.533 184.239 150.367C184.239 150.367 185.577 139.631 182.854 134.18C180.131 128.73 177.315 128.129 177.315 128.129C175.534 127.69 173.899 129.349 172.996 131.482" stroke="#263238" stroke-linecap="round" stroke-linejoin="round"/>
<g opacity="0.4">
<path d="M172.435 133.146C172.208 134.041 172.135 134.969 172.22 135.888C172.606 139.265 174.25 147.376 174.25 147.376C174.25 147.376 182.356 148.533 184.239 150.367C184.239 150.367 185.577 139.631 182.854 134.18C180.131 128.73 177.315 128.129 177.315 128.129C175.534 127.69 173.899 129.349 172.996 131.482" fill="white"/>
<path d="M172.435 133.146C172.208 134.041 172.135 134.969 172.22 135.888C172.606 139.265 174.25 147.376 174.25 147.376C174.25 147.376 182.356 148.533 184.239 150.367C184.239 150.367 185.577 139.631 182.854 134.18C180.131 128.73 177.315 128.129 177.315 128.129C175.534 127.69 173.899 129.349 172.996 131.482" stroke="#263238" stroke-linecap="round" stroke-linejoin="round"/>
</g>
<path d="M148.62 137.323C149.834 138.316 151.249 139.032 152.768 139.422" stroke="#263238" stroke-linecap="round" stroke-linejoin="round"/>
<path d="M174.25 137.323C174.25 137.323 177.178 142.857 180.877 144.077" stroke="#263238" stroke-linecap="round" stroke-linejoin="round"/>
<path d="M155.277 179.95C155.277 179.95 155.818 180.36 156.038 181.839" stroke="white" stroke-linecap="round" stroke-linejoin="round"/>
<path d="M153.271 181.839C153.742 181.89 154.198 182.039 154.609 182.275C155.02 182.512 155.377 182.832 155.657 183.215" stroke="white" stroke-linecap="round" stroke-linejoin="round"/>
<path d="M137.128 176.168C137.128 176.168 138.69 176.959 138.353 179.199" stroke="white" stroke-linecap="round" stroke-linejoin="round"/>
<path d="M135.483 178.071C135.483 178.071 137.616 179.335 137.767 180.467" stroke="white" stroke-linecap="round" stroke-linejoin="round"/>
<path d="M160.201 164.417C160.201 164.417 164.949 165.081 166.013 164.417" stroke="white" stroke-linecap="round" stroke-linejoin="round"/>
<path d="M158.288 135.366C157.878 134.204 157.712 132.97 157.8 131.74C157.819 131.323 157.863 130.908 157.932 130.496L157.107 129.188L156.048 127.505L157.273 122.625C157.273 122.625 165.081 124.128 165.666 126.304C166.252 128.481 158.288 135.366 158.288 135.366Z" fill="white"/>
<mask id="mask7_226_962" style="mask-type:luminance" maskUnits="userSpaceOnUse" x="156" y="122" width="10" height="14">
<path d="M158.288 135.366C157.878 134.204 157.712 132.97 157.8 131.74C157.819 131.323 157.863 130.908 157.932 130.496L157.107 129.188L156.048 127.505L157.273 122.625C157.273 122.625 165.081 124.128 165.666 126.304C166.252 128.481 158.288 135.366 158.288 135.366Z" fill="white"/>
</mask>
<g mask="url(#mask7_226_962)">
<path opacity="0.2" d="M157.79 131.76C157.81 131.343 157.854 130.927 157.922 130.516L157.097 129.208C158.584 128.978 159.937 128.219 160.908 127.07C160.949 128.081 160.67 129.079 160.11 129.921C159.55 130.763 158.738 131.407 157.79 131.76Z" fill="black" fill-opacity="0.7"/>
</g>
<path d="M158.288 135.366C157.878 134.204 157.712 132.97 157.8 131.74C157.819 131.323 157.863 130.908 157.932 130.496L157.107 129.188L156.048 127.505L157.273 122.625C157.273 122.625 165.081 124.128 165.666 126.304C166.252 128.481 158.288 135.366 158.288 135.366Z" stroke="#263238" stroke-linecap="round" stroke-linejoin="round"/>
<path d="M163.187 123.035C165.627 116.691 164.007 105.891 152.295 107.96C145.424 109.18 144.594 117.486 146.888 121.175C149.182 124.865 146.746 124.982 150.197 127.715C151.597 128.822 152.724 130.701 154.393 130.823C156.38 130.96 158.922 129.081 160.82 127.051" fill="white"/>
<path d="M163.187 123.035C165.627 116.691 164.007 105.891 152.295 107.96C145.424 109.18 144.594 117.486 146.888 121.175C149.182 124.865 146.746 124.982 150.197 127.715C151.597 128.822 152.724 130.701 154.393 130.823C156.38 130.96 158.922 129.081 160.82 127.051" stroke="#263238" stroke-linecap="round" stroke-linejoin="round"/>
<path d="M151.646 121.175C151.646 121.175 153.374 119.604 155.428 120.253" stroke="#263238" stroke-linecap="round" stroke-linejoin="round"/>
<path d="M148.411 121.175C148.179 120.768 147.856 120.419 147.468 120.157C147.079 119.894 146.635 119.725 146.171 119.662" stroke="#263238" stroke-linecap="round" stroke-linejoin="round"/>
<path d="M149.553 123.464C149.553 123.464 149.304 124.728 148.977 126.006C148.65 127.285 151.026 126.587 150.929 126.392" fill="white"/>
<path d="M149.553 123.464C149.553 123.464 149.304 124.728 148.977 126.006C148.65 127.285 151.026 126.587 150.929 126.392" stroke="#263238" stroke-linecap="round" stroke-linejoin="round"/>
<path d="M152.154 127.988C153.161 127.699 154.058 127.112 154.725 126.304" stroke="#263238" stroke-linecap="round" stroke-linejoin="round"/>
<path d="M154.052 122.781C154.087 122.842 154.109 122.91 154.117 122.98C154.126 123.05 154.12 123.121 154.101 123.189C154.082 123.257 154.05 123.321 154.006 123.376C153.963 123.432 153.909 123.478 153.847 123.513C153.722 123.581 153.575 123.598 153.438 123.558C153.301 123.519 153.185 123.427 153.115 123.303C153.07 123.228 153.047 123.142 153.047 123.054C153.012 122.993 152.99 122.925 152.981 122.855C152.973 122.785 152.978 122.714 152.997 122.646C153.016 122.578 153.048 122.514 153.092 122.459C153.136 122.403 153.19 122.357 153.252 122.322C153.377 122.254 153.524 122.237 153.661 122.277C153.798 122.316 153.914 122.408 153.984 122.532C154.028 122.607 154.052 122.693 154.052 122.781Z" fill="#263238"/>
<path d="M148.84 122.673C148.938 123.025 148.869 123.357 148.684 123.405C148.498 123.454 148.269 123.21 148.196 122.854C148.123 122.498 148.171 122.171 148.357 122.122C148.542 122.073 148.733 122.317 148.84 122.673Z" fill="#263238"/>
<path d="M155.965 114.641C155.965 114.641 154.15 119.389 149.66 119.282C149.66 119.282 151.217 118.096 151.646 116.964C151.646 116.964 148.191 120.38 144.741 118.643C141.291 116.905 142.984 108.824 148.279 105.633C153.574 102.441 158.991 103.295 160.825 106.345C160.825 106.345 164.534 106.003 166.169 111.454C167.633 116.334 165.291 123.732 163.002 123.815C159.454 123.947 158.742 120.097 158.742 120.097C157.277 118.607 156.307 116.702 155.965 114.641Z" fill="#263238" stroke="#263238" stroke-linecap="round" stroke-linejoin="round"/>
<path d="M159.854 123.059C159.854 123.059 159.742 118.579 162.294 119.121C164.846 119.663 162.997 124.84 161.079 124.787" fill="white"/>
<path d="M159.854 123.059C159.854 123.059 159.742 118.579 162.294 119.121C164.846 119.663 162.997 124.84 161.079 124.787" stroke="#263238" stroke-linecap="round" stroke-linejoin="round"/>
<path d="M151.973 148.211H112.626C112.186 148.211 111.83 148.567 111.83 149.006V150.377C111.83 150.817 112.186 151.173 112.626 151.173H151.973C152.412 151.173 152.768 150.817 152.768 150.377V149.006C152.768 148.567 152.412 148.211 151.973 148.211Z" fill="#EA9A01" stroke="#263238" stroke-linecap="round" stroke-linejoin="round"/>
<path d="M54.5534 207.82H37.9565L39.6938 222.992H52.8161L54.5534 207.82Z" fill="#263238" stroke="#263238" stroke-linecap="round" stroke-linejoin="round"/>
<path d="M56.5201 197.259C56.5201 197.259 49.2733 197.83 48.9707 203.179C48.9707 203.179 56.3102 206.556 56.5201 197.259Z" fill="#EA9A01" stroke="#263238" stroke-linecap="round" stroke-linejoin="round"/>
<path d="M42.1826 198.587C42.1826 198.587 38.1322 193.111 31.5881 195.917C31.5881 195.917 35.5849 202.52 42.1826 198.587Z" fill="#EA9A01" stroke="#263238" stroke-linecap="round" stroke-linejoin="round"/>
<path d="M32.1445 181.302C32.1445 181.302 30.9782 191.833 40.5674 188.934C40.5674 188.934 37.5223 181.19 32.1445 181.302Z" fill="#EA9A01" stroke="#263238" stroke-linecap="round" stroke-linejoin="round"/>
<path d="M43.9199 175.436C43.9199 175.436 36.3364 179.525 41.9142 185.733C41.9093 185.733 47.2237 181.297 43.9199 175.436Z" fill="#EA9A01" stroke="#263238" stroke-linecap="round" stroke-linejoin="round"/>
<path d="M53.2455 184.85C53.2455 184.85 44.9983 184.015 44.9983 191.647C44.9983 191.647 53.2455 191.974 53.2455 184.85Z" fill="#EA9A01" stroke="#263238" stroke-linecap="round" stroke-linejoin="round"/>
<path d="M45.4716 214.071C45.4716 214.071 49.2292 206.185 45.6229 198.152C42.0166 190.12 40.7917 183.351 42.6949 178.584" stroke="#263238" stroke-linecap="round" stroke-linejoin="round"/>
<path d="M50.5372 186.904C50.5372 186.904 45.5938 188.856 43.9199 193.956" stroke="#263238" stroke-linecap="round" stroke-linejoin="round"/>
<path d="M34.7505 185.513C34.7505 185.513 37.6053 189.417 42.4414 188.983" stroke="#263238" stroke-linecap="round" stroke-linejoin="round"/>
<path d="M34.7505 197.04C34.7505 197.04 42.6561 199.314 45.7988 198.572" stroke="#263238" stroke-linecap="round" stroke-linejoin="round"/>
<path d="M54.1678 199.665C54.1678 199.665 50.6298 203.569 47.0771 203.486" stroke="#263238" stroke-linecap="round" stroke-linejoin="round"/>
<path d="M55.266 207.483H37.2441V209.625H55.266V207.483Z" fill="#263238" stroke="#263238" stroke-linecap="round" stroke-linejoin="round"/>
<path d="M186.045 193.736C181.832 196.488 178.297 200.159 175.704 204.472C171.405 211.646 167.999 221.737 173.289 223.016L178.32 222.826L188.002 219.502L186.987 217.55C186.987 217.55 178.51 222.04 177.061 222.04C175.612 222.04 173.723 222.401 172.928 221.82C172.132 221.24 175.714 208.195 183.381 203.847C191.047 199.499 186.045 193.736 186.045 193.736Z" fill="#EA9A01"/>
<mask id="mask8_226_962" style="mask-type:luminance" maskUnits="userSpaceOnUse" x="170" y="193" width="19" height="31">
<path d="M186.045 193.736C181.832 196.488 178.297 200.159 175.704 204.472C171.405 211.646 167.999 221.737 173.289 223.016L178.32 222.826L188.002 219.502L186.987 217.55C186.987 217.55 178.51 222.04 177.061 222.04C175.612 222.04 173.723 222.401 172.928 221.82C172.132 221.24 175.714 208.195 183.381 203.847C191.047 199.499 186.045 193.736 186.045 193.736Z" fill="white"/>
</mask>
<g mask="url(#mask8_226_962)">
<path opacity="0.5" d="M186.045 193.736C181.832 196.488 178.297 200.159 175.704 204.472C171.405 211.646 167.999 221.737 173.289 223.016L178.32 222.826L188.002 219.502L186.987 217.55C186.987 217.55 178.51 222.04 177.061 222.04C175.612 222.04 173.723 222.401 172.928 221.82C172.132 221.24 175.714 208.195 183.381 203.847C191.047 199.499 186.045 193.736 186.045 193.736Z" fill="black" fill-opacity="0.7"/>
</g>
<path d="M186.045 193.736C181.832 196.488 178.297 200.159 175.704 204.472C171.405 211.646 167.999 221.737 173.289 223.016L178.32 222.826L188.002 219.502L186.987 217.55C186.987 217.55 178.51 222.04 177.061 222.04C175.612 222.04 173.723 222.401 172.928 221.82C172.132 221.24 175.714 208.195 183.381 203.847C191.047 199.499 186.045 193.736 186.045 193.736Z" stroke="#263238" stroke-linecap="round" stroke-linejoin="round"/>
<path d="M191.555 189.032C191.555 189.032 191.555 186.928 194.741 186.64C197.928 186.353 198.382 189.422 198.382 189.422H197.284C197.284 189.422 197.308 187.582 194.966 187.441C192.623 187.299 192.711 189.422 192.711 189.422L191.555 189.032Z" fill="#EA9A01" stroke="#263238" stroke-linecap="round" stroke-linejoin="round"/>
<path d="M186.841 223.016C180.101 223.016 181.38 192.794 182.156 191.296C182.932 189.798 202.486 189.051 204.413 189.686C206.341 190.32 214.071 220.43 209.806 222.835L186.841 223.016Z" fill="#EA9A01"/>
<mask id="mask9_226_962" style="mask-type:luminance" maskUnits="userSpaceOnUse" x="181" y="189" width="31" height="35">
<path d="M186.841 223.016C180.101 223.016 181.38 192.794 182.156 191.296C182.932 189.798 202.486 189.051 204.413 189.686C206.341 190.32 214.071 220.43 209.806 222.835L186.841 223.016Z" fill="white"/>
</mask>
<g mask="url(#mask9_226_962)">
<path opacity="0.2" d="M186.841 223.016C180.101 223.016 181.38 192.794 182.156 191.296C182.932 189.798 202.486 189.051 204.413 189.686C206.341 190.32 214.071 220.43 209.806 222.835L186.841 223.016Z" fill="black" fill-opacity="0.7"/>
</g>
<path d="M186.841 223.016C180.101 223.016 181.38 192.794 182.156 191.296C182.932 189.798 202.486 189.051 204.413 189.686C206.341 190.32 214.071 220.43 209.806 222.835L186.841 223.016Z" stroke="#263238" stroke-linecap="round" stroke-linejoin="round"/>
<path d="M182.156 191.262C184.596 191.784 186.001 201.676 189.285 204.194C192.57 206.712 208.054 206.17 209.806 204.194C211.558 202.217 208.132 191.12 205.643 189.422C203.154 187.724 201.383 189.373 194.38 188.597C184 187.441 182.156 191.262 182.156 191.262Z" fill="#EA9A01" stroke="#263238" stroke-linecap="round" stroke-linejoin="round"/>
<path d="M199.929 196.947L202.798 199.289C202.837 199.323 202.87 199.363 202.893 199.409C202.916 199.455 202.931 199.505 202.935 199.556C202.939 199.607 202.933 199.659 202.917 199.708C202.901 199.757 202.876 199.802 202.842 199.841L200.607 202.252C200.536 202.323 200.439 202.362 200.339 202.362C200.238 202.362 200.142 202.323 200.07 202.252L197.215 199.592C197.146 199.52 197.107 199.424 197.107 199.324C197.107 199.223 197.146 199.127 197.215 199.055L199.426 197.001C199.489 196.932 199.575 196.888 199.667 196.878C199.76 196.868 199.853 196.893 199.929 196.947Z" fill="#EA9A01"/>
<mask id="mask10_226_962" style="mask-type:luminance" maskUnits="userSpaceOnUse" x="197" y="196" width="6" height="7">
<path d="M199.929 196.947L202.798 199.289C202.837 199.323 202.87 199.363 202.893 199.409C202.916 199.455 202.931 199.505 202.935 199.556C202.939 199.607 202.933 199.659 202.917 199.708C202.901 199.757 202.876 199.802 202.842 199.841L200.607 202.252C200.536 202.323 200.439 202.362 200.339 202.362C200.238 202.362 200.142 202.323 200.07 202.252L197.215 199.592C197.146 199.52 197.107 199.424 197.107 199.324C197.107 199.223 197.146 199.127 197.215 199.055L199.426 197.001C199.489 196.932 199.575 196.888 199.667 196.878C199.76 196.868 199.853 196.893 199.929 196.947Z" fill="white"/>
</mask>
<g mask="url(#mask10_226_962)">
<path opacity="0.2" d="M199.929 196.947L202.798 199.289C202.837 199.323 202.87 199.363 202.893 199.409C202.916 199.455 202.931 199.505 202.935 199.556C202.939 199.607 202.933 199.659 202.917 199.708C202.901 199.757 202.876 199.802 202.842 199.841L200.607 202.252C200.536 202.323 200.439 202.362 200.339 202.362C200.238 202.362 200.142 202.323 200.07 202.252L197.215 199.592C197.146 199.52 197.107 199.424 197.107 199.324C197.107 199.223 197.146 199.127 197.215 199.055L199.426 197.001C199.489 196.932 199.575 196.888 199.667 196.878C199.76 196.868 199.853 196.893 199.929 196.947Z" fill="black" fill-opacity="0.7"/>
</g>
<path d="M199.929 196.947L202.798 199.289C202.837 199.323 202.87 199.363 202.893 199.409C202.916 199.455 202.931 199.505 202.935 199.556C202.939 199.607 202.933 199.659 202.917 199.708C202.901 199.757 202.876 199.802 202.842 199.841L200.607 202.252C200.536 202.323 200.439 202.362 200.339 202.362C200.238 202.362 200.142 202.323 200.07 202.252L197.215 199.592C197.146 199.52 197.107 199.424 197.107 199.324C197.107 199.223 197.146 199.127 197.215 199.055L199.426 197.001C199.489 196.932 199.575 196.888 199.667 196.878C199.76 196.868 199.853 196.893 199.929 196.947Z" stroke="#263238" stroke-linecap="round" stroke-linejoin="round"/>
<path d="M190.467 209.249C190.467 209.249 203.438 210.318 209.806 208.669C210.658 209.339 211.292 210.248 211.626 211.28C212.207 213.017 213.417 218.961 209.806 220.483C206.195 222.006 193.214 221.713 191.482 219.995C189.749 218.277 190.467 209.249 190.467 209.249Z" fill="#EA9A01"/>
<mask id="mask11_226_962" style="mask-type:luminance" maskUnits="userSpaceOnUse" x="190" y="208" width="23" height="14">
<path d="M190.467 209.249C190.467 209.249 203.438 210.318 209.806 208.669C210.658 209.339 211.292 210.248 211.626 211.28C212.207 213.017 213.417 218.961 209.806 220.483C206.195 222.006 193.214 221.713 191.482 219.995C189.749 218.277 190.467 209.249 190.467 209.249Z" fill="white"/>
</mask>
<g mask="url(#mask11_226_962)">
<path opacity="0.4" d="M190.467 209.249C190.467 209.249 203.438 210.318 209.806 208.669C210.658 209.339 211.292 210.248 211.626 211.28C212.207 213.017 213.417 218.961 209.806 220.483C206.195 222.006 193.214 221.713 191.482 219.995C189.749 218.277 190.467 209.249 190.467 209.249Z" fill="black" fill-opacity="0.7"/>
</g>
<path d="M190.467 209.249C190.467 209.249 203.438 210.318 209.806 208.669C210.658 209.339 211.292 210.248 211.626 211.28C212.207 213.017 213.417 218.961 209.806 220.483C206.195 222.006 193.214 221.713 191.482 219.995C189.749 218.277 190.467 209.249 190.467 209.249Z" stroke="#263238" stroke-linecap="round" stroke-linejoin="round"/>
<path d="M190.467 209.249C190.467 209.249 191.989 213.354 192.785 213.983C193.58 214.613 210.431 214.613 212.305 213.09C214.178 211.567 211.612 208.815 209.811 208.669C209.806 208.669 198.001 210.045 190.467 209.249Z" fill="#EA9A01" stroke="#263238" stroke-linecap="round" stroke-linejoin="round"/>
<path d="M185.03 208.376C185.03 208.376 185.464 216.999 186.333 218.956C185.688 219.292 184.972 219.468 184.244 219.468C183.517 219.468 182.8 219.292 182.156 218.956C179.96 217.794 180.321 210.367 180.755 210.387C181.189 210.406 185.03 208.376 185.03 208.376Z" fill="#EA9A01"/>
<mask id="mask12_226_962" style="mask-type:luminance" maskUnits="userSpaceOnUse" x="180" y="208" width="7" height="12">
<path d="M185.03 208.376C185.03 208.376 185.464 216.999 186.333 218.956C185.688 219.292 184.972 219.468 184.244 219.468C183.517 219.468 182.8 219.292 182.156 218.956C179.96 217.794 180.321 210.367 180.755 210.387C181.189 210.406 185.03 208.376 185.03 208.376Z" fill="white"/>
</mask>
<g mask="url(#mask12_226_962)">
<path opacity="0.4" d="M185.03 208.376C185.03 208.376 185.464 216.999 186.333 218.956C185.688 219.292 184.972 219.468 184.244 219.468C183.517 219.468 182.8 219.292 182.156 218.956C179.96 217.794 180.321 210.367 180.755 210.387C181.189 210.406 185.03 208.376 185.03 208.376Z" fill="black" fill-opacity="0.7"/>
</g>
<path d="M185.03 208.376C185.03 208.376 185.464 216.999 186.333 218.956C185.688 219.292 184.972 219.468 184.244 219.468C183.517 219.468 182.8 219.292 182.156 218.956C179.96 217.794 180.321 210.367 180.755 210.387C181.189 210.406 185.03 208.376 185.03 208.376Z" stroke="#263238" stroke-linecap="round" stroke-linejoin="round"/>
<path d="M185.03 208.376L181.765 209.03C181.765 209.03 178.652 211.421 180.028 212.217C181.404 213.012 184.952 211.06 185.03 208.376Z" fill="#EA9A01" stroke="#263238" stroke-linecap="round" stroke-linejoin="round"/>
</svg>
